# xmcd CD database file
#
# Track frame offsets:
#	150
#	17202
#	33614
#	48276
#	56108
#	63939
#	79819
#	91325
#	106864
#	120782
#	142811
#	156337
#	168185
#	183735
#	209734
#	222862
#	237110
#
# Disc length: 3314 seconds
#
# Revision: 3
# Processed by: cddbd v1.5.2PL0 Copyright (c) Steve Scherf et al.
# Submitted via: CDex 1.70beta2
#
DISCID=e60cf011
DTITLE=L'Attirail - Kara Deniz
DYEAR=2007
DGENRE=Jazz
TTITLE0=Efes B
TTITLE1=Yeni Raki Factory
TTITLE2=L'Hospodar au bazar
TTITLE3=La passe de Kertch
TTITLE4=Gagra BB 1905
TTITLE5=Papak et schislik
TTITLE6=Insula Serpilor
TTITLE7=Dobroudja en dacia
TTITLE8=Yalta waltz
TTITLE9=Vasiliko vapur
TTITLE10=Khods 64
TTITLE11=Trabzon tram
TTITLE12=Daglari eski taksi
TTITLE13=Le clan des Caucasiens
TTITLE14=Bora sur Hopa
TTITLE15=Schamyl l'insaisissable
TTITLE16=Les deux du konak
EXTD=YEAR: 2007
EXTT0=
EXTT1=
EXTT2=
EXTT3=
EXTT4=
EXTT5=
EXTT6=
EXTT7=
EXTT8=
EXTT9=
EXTT10=
EXTT11=
EXTT12=
EXTT13=
EXTT14=
EXTT15=
EXTT16=
PLAYORDER=
